<?xml version="1.0" standalone="no"?>
<!DOCTYPE svg PUBLIC "-//W3C//DTD SVG 20010904//EN"
 "http://www.w3.org/TR/2001/REC-SVG-20010904/DTD/svg10.dtd">
<svg version="1.0" xmlns="http://www.w3.org/2000/svg"
 width="16.000000pt" height="16.000000pt" viewBox="0 0 16.000000 16.000000"
 preserveAspectRatio="xMidYMid meet">
<metadata>
Created by potrace 1.11, written by Peter Selinger 2001-2013
</metadata>
<g transform="translate(0.000000,16.000000) scale(0.003125,-0.003125)"
fill="#000000" stroke="none">
<path d="M248 5106 c-98 -35 -166 -94 -216 -189 l-27 -52 0 -2305 0 -2305 28
-53 c39 -75 87 -124 159 -163 l63 -34 2305 0 2305 0 63 34 c72 39 120 88 159
163 l28 53 0 2305 0 2305 -34 63 c-39 72 -88 120 -163 159 l-53 28 -2290 2
c-1867 2 -2297 0 -2327 -11z m1524 -1186 c213 -12 366 -32 508 -67 545 -132
915 -481 1024 -965 6 -25 26 -40 26 -19 0 4 128 244 284 532 l284 524 179 0
178 0 3 -1372 2 -1373 -180 0 -180 0 -1 1043 c0 685 -4 1037 -10 1027 -5 -8
-260 -477 -566 -1043 l-557 -1027 -953 0 -953 0 0 1375 0 1375 368 0 c202 0
447 -5 544 -10z"/>
<path d="M1378 3743 c-27 -2 -48 -8 -48 -12 0 -4 63 -124 141 -267 77 -142
337 -621 577 -1064 239 -443 437 -807 438 -809 6 -7 50 27 112 84 150 138 263
350 313 585 19 86 23 136 23 275 -1 356 -71 571 -256 787 -188 218 -461 353
-815 402 -112 16 -402 27 -485 19z"/>
<path d="M1230 2348 l0 -885 22 -28 c40 -52 74 -59 301 -63 120 -2 251 1 310
8 106 12 316 56 331 70 8 8 -921 1737 -951 1770 -11 12 -13 -131 -13 -872z"/>
</g>
</svg>
